<svg xmlns="http://www.w3.org/2000/svg" viewBox="0 0 32.03 28.25"><defs><style>.cls-1{isolation:isolate;}.cls-2{fill:#b81c22;}</style></defs><title>Asset 6</title><g id="Layer_2" data-name="Layer 2"><g id="PC_TOP"><g id="Q."><g class="cls-1"><path class="cls-2" d="M20.86,28.25a28.84,28.84,0,0,0-3-3.23,10.87,10.87,0,0,1-5.89,1.51,11.28,11.28,0,0,1-8.31-3.2C1.25,20.93,0,17.44,0,13.34,0,5.28,4.77,0,12,0S23.9,5.18,23.9,13.18a16.68,16.68,0,0,1-1,5.92,11.91,11.91,0,0,1-2.4,3.78l.89.86a25.48,25.48,0,0,0,2.08,1.79ZM14.91,17.37c.42.52,1.25,1.35,2.53,2.6a6.21,6.21,0,0,0,1.25-2.12,12.92,12.92,0,0,0,.73-4.44,11.88,11.88,0,0,0-1.76-6.79,6.73,6.73,0,0,0-5.73-2.91c-4.6,0-7.51,3.68-7.51,9.5s2.94,9.6,7.58,9.6a6,6,0,0,0,2.88-.64,29.33,29.33,0,0,0-2.56-2.24Z"/><path class="cls-2" d="M27.36,26V21.31H32V26Z"/></g></g></g></g></svg>