<svg xmlns="http://www.w3.org/2000/svg" viewBox="0 0 32.16 25.47"><defs><style>.cls-1{isolation:isolate;}.cls-2{fill:#b81c22;}</style></defs><title>Asset 7</title><g id="Layer_2" data-name="Layer 2"><g id="PC_TOP"><g id="A." class="cls-1"><g class="cls-1"><path class="cls-2" d="M19.9,25.47A20.2,20.2,0,0,0,19,22.11l-1.28-3.49H7.49L6.21,22.11a14.48,14.48,0,0,0-1,3.36H0a32.36,32.36,0,0,0,1.7-3.78l7-18.46A21.64,21.64,0,0,0,9.76,0h5.57a22,22,0,0,0,1.09,3.23l7.1,18.46a32.77,32.77,0,0,0,1.63,3.78Zm-6.75-20c-.13-.38-.25-.73-.57-1.79-.13.32-.23.67-.36,1s-.19.61-.25.77L8.64,14.94h7.94Z"/><path class="cls-2" d="M27.49,25.47V20.8h4.67v4.67Z"/></g></g></g></g></svg>