<svg xmlns="http://www.w3.org/2000/svg" viewBox="0 0 29.12 43.31"><defs><style>.cls-1{fill:#fff;}.cls-2{fill:#b81c22;}</style></defs><title>Asset 8</title><g id="Layer_2" data-name="Layer 2"><g id="PC_TOP"><path class="cls-1" d="M.42,31.09a8.93,8.93,0,0,1,.94-3c.09-.17.19-.33.29-.5s0-.22,0-.33a12.36,12.36,0,0,1,.73-3.76,13.48,13.48,0,0,1,1.72-3.22,12.94,12.94,0,0,1,1.25-1.52c.15-.16.32-.32.49-.47,1-.92,1.92-1.92,2.82-2.93,1.18-1.34,2.3-2.72,3.4-4.12l.22-.28.11-.14,0-.06.46-.6c.31-.4.61-.81.91-1.21.61-.82,1.22-1.65,1.8-2.48.3-.43.57-.88.86-1.32.42-.63.87-1.25,1.34-1.83a9.78,9.78,0,0,1,1.65-1.63,6,6,0,0,1,2.19-1,5.49,5.49,0,0,1,2.76,0,5.24,5.24,0,0,1,1.28.56,4.87,4.87,0,0,1,1.1.86,6.85,6.85,0,0,1,1.37,4.73,6.29,6.29,0,0,1-.5,2.37,11.9,11.9,0,0,1-1.26,2.36,13.7,13.7,0,0,1-1.58,1.91c-.61.61-1.26,1.2-1.9,1.78s-1,.89-1.47,1.35A4.68,4.68,0,0,1,24,18.11a5.6,5.6,0,0,1,1.21,2.76c0,.26.07.53.09.8a5.85,5.85,0,0,1,2.31,2.13,5.7,5.7,0,0,1,.77,2.58A7.59,7.59,0,0,1,28.1,29a6.35,6.35,0,0,1,.49,4.39,6.82,6.82,0,0,1-.74,1.89,4.78,4.78,0,0,1-1.05,1.32,8.35,8.35,0,0,1-2.09,1.2,6.79,6.79,0,0,1-2,.49h-.31A21.42,21.42,0,0,1,18.47,40c-.44.15-.89.27-1.35.38l0,.05A6.87,6.87,0,0,1,15,42a8.5,8.5,0,0,1-2.66.74A10.71,10.71,0,0,1,7,41.94a11.21,11.21,0,0,1-2.38-1.3A10.29,10.29,0,0,1,2.83,38.9,11.13,11.13,0,0,1,.51,34,9.16,9.16,0,0,1,.42,31.09Z"/><path class="cls-2" d="M24.68,1.73h0s-.07,0-.07,0Z"/><path class="cls-2" d="M20.38,2.39c-.13.11-.05,0,0,0Z"/><path class="cls-2" d="M14.57,29.46l-.06-.05h0l.08.06Z"/><path class="cls-2" d="M15.38,29.91l-.07,0,.09,0Z"/><path class="cls-2" d="M25.7,23.44l0,0h0l0,0Z"/><path class="cls-2" d="M27.27,27.67v.06h0C27.28,27.55,27.28,27.61,27.27,27.67Z"/><path class="cls-2" d="M26.08,35.9h0l.08-.06Z"/><path class="cls-2" d="M23.14,37.18h0Z"/><path class="cls-2" d="M26.59,35.37l0,0h0l0,0Z"/><path class="cls-2" d="M19.68,35.53v0l0,0S19.66,35.47,19.68,35.53Z"/><path class="cls-2" d="M5.36,20.62c0-.05.07-.09,0,0Z"/><path class="cls-2" d="M2.87,26.38Z"/><path class="cls-2" d="M3.66,23.48c0-.05,0-.11,0,0Z"/><path class="cls-2" d="M9.71,39Z"/><path class="cls-2" d="M7.17,37.48Z"/><path class="cls-2" d="M18.15,21.16h0C18.11,21,18.14,21.11,18.15,21.16Z"/><path class="cls-2" d="M17.93,23h0l0,0S17.88,23.12,17.93,23Z"/><path class="cls-2" d="M13.3,25.47Z"/><path class="cls-2" d="M15.86,24.81h-.07l.07,0Z"/><path class="cls-2" d="M10.7,17.42Z"/><path class="cls-2" d="M15.54,39.69Z"/><path class="cls-2" d="M16.54,18.82h0S16.67,18.94,16.54,18.82Z"/><path class="cls-2" d="M12.42,39.7h0Z"/><path class="cls-2" d="M14.17,41.27l-.06,0h0C14.15,41.27,14.17,41.26,14.17,41.27Z"/><path class="cls-2" d="M.17,34.24a11.34,11.34,0,0,0,2.38,5.08A10.4,10.4,0,0,0,4.4,41.1a10.69,10.69,0,0,0,2.44,1.33,10.85,10.85,0,0,0,5.4.81A8.61,8.61,0,0,0,15,42.48a7,7,0,0,0,2.17-1.58l.05,0c.46-.11.92-.24,1.37-.39a20.92,20.92,0,0,0,4-1.8h.32a6.68,6.68,0,0,0,2.06-.5,8.05,8.05,0,0,0,2.15-1.23,4.73,4.73,0,0,0,1.08-1.35,7.1,7.1,0,0,0,.75-1.93,6.54,6.54,0,0,0-.5-4.5,7.75,7.75,0,0,0,.33-2.66A5.72,5.72,0,0,0,28,23.85a6,6,0,0,0-2.36-2.18,7.64,7.64,0,0,0-.1-.82A5.66,5.66,0,0,0,24.27,18a4.75,4.75,0,0,0-2.65-1.52c.49-.48,1-.93,1.5-1.39.66-.59,1.32-1.19,1.95-1.82a13.83,13.83,0,0,0,1.62-2A12.5,12.5,0,0,0,28,8.91a6.53,6.53,0,0,0,.51-2.43,7,7,0,0,0-1.4-4.84A5.3,5.3,0,0,0,26,.76,5.73,5.73,0,0,0,24.65.19a5.65,5.65,0,0,0-2.83,0,5.85,5.85,0,0,0-2.24,1,10.2,10.2,0,0,0-1.69,1.66,23.16,23.16,0,0,0-1.37,1.88c-.3.45-.58.91-.88,1.35-.6.85-1.22,1.7-1.84,2.54-.31.41-.62.83-.94,1.24l-.47.61-.05.07-.11.14L12,11c-1.12,1.43-2.28,2.85-3.49,4.21a41,41,0,0,1-2.88,3,5.79,5.79,0,0,0-.51.48,12.8,12.8,0,0,0-1.28,1.56A13.68,13.68,0,0,0,2.1,23.52a12.78,12.78,0,0,0-.76,3.86c0,.11,0,.22,0,.34s-.2.33-.29.5a9.18,9.18,0,0,0-.87,6ZM21.24,1.88h0Zm1.48-.41-.11,0ZM23,13.31c-.64.6-1.3,1.17-1.94,1.77a19.51,19.51,0,0,0-2.87,3.22,8.28,8.28,0,0,0-3.54-2,9.73,9.73,0,0,0-4-.34c-.35.05-.69.11-1,.19l.71-.81c1.24-1.45,2.43-2.95,3.6-4.47q.93-1.23,1.83-2.46c.49-.66,1-1.32,1.42-2,.34-.51.66-1,1-1.53l.31-.43.17-.23.08-.1c.22-.29.46-.57.7-.84a9.57,9.57,0,0,1,.79-.77l.21-.16,0,0,0,0,.09-.06A4.94,4.94,0,0,1,20.91,2l.22-.11.06,0,0,0,.66-.23c.21-.06.42-.11.64-.15h.18l.29,0a4.53,4.53,0,0,1,.64,0h.15l.3.06c.19.05.37.1.56.17l.05,0h0l.06,0,0,0,.11.06a1.59,1.59,0,0,1,.29.15,4.17,4.17,0,0,1,.56.37h0l0,0,.12.1.19.18a1.86,1.86,0,0,0,.19.22l.06.09a4.67,4.67,0,0,1,.27.49l0,.08,0,.06.09.25c.06.19.11.37.15.56s.08.39.11.58V5s0,.09,0,.13l0,.3c0,.39,0,.77,0,1.16a2.26,2.26,0,0,1,0,.26A.61.61,0,0,1,27,7V7a.58.58,0,0,0,0,.1.5.5,0,0,1,0,.12l-.06.26c-.05.19-.1.38-.16.57a2.83,2.83,0,0,0-.11.31l-.06.13,0,.08,0,.09-.06.14c-.05.09-.09.19-.14.28s-.19.38-.3.57c-.21.36-.43.72-.67,1.06l-.19.27-.09.11v0c-.12.14-.23.29-.35.42A20.88,20.88,0,0,1,23,13.31Zm1.23,9.37,0,.43a.93.93,0,0,1,0,.14v.1a8,8,0,0,1-.43,1.57,1.67,1.67,0,0,1-.08.2l0,.05c-.05.12-.11.23-.17.35s-.26.49-.41.72l-.24.35-.13.18,0,0a1,1,0,0,0-.15.19l-.13.15-.25.29a12.27,12.27,0,0,1-1.16,1.12l-.16.13-.06,0-.31.23a7.57,7.57,0,0,1-.67.42c-.22.13-.45.24-.68.35l-.08,0-.17.06-.35.12a5,5,0,0,1-.74.18l-.19,0h-.07l-.38,0a5.42,5.42,0,0,1-.57,0h-.13l-.21,0a4.77,4.77,0,0,1-.51-.13l-.24-.08h0l-.11,0h0a4,4,0,0,1-.46-.24l-.24-.16h0l0,0,0,0-.07-.06a3.15,3.15,0,0,1-.36-.37c-.05-.05-.17-.23,0,0l-.06-.09-.15-.22-.12-.25s0-.08,0-.13-.06-.2-.08-.3l0-.14v0a4.19,4.19,0,0,1,0-.61c0-.06,0-.13,0-.19V27l0-.12a10,10,0,0,0,3.45-1.06,5.53,5.53,0,0,0,1.37-1,4,4,0,0,0,1-1.91,5.14,5.14,0,0,0,0-2.34,3.83,3.83,0,0,0-.41-1c.15-.25.31-.49.47-.72l.21-.28,0,0a.76.76,0,0,1,.08-.11l.43-.51.07-.08h.32l.2,0h.06a3,3,0,0,1,.41.08,3,3,0,0,1,.43.12l.22.08.08,0a3.75,3.75,0,0,1,.44.24l.21.15.08.06a3.59,3.59,0,0,1,.39.39l.09.11.17.24a3.5,3.5,0,0,1,.29.54l0,0,.05.14a3.38,3.38,0,0,1,.11.34,6.11,6.11,0,0,1,.17.74.51.51,0,0,1,0,.13v.07h0v.09c0,.14,0,.27,0,.4Q24.2,22.26,24.18,22.68Zm-7.13,1.45,0,0Zm-3.43,3.7c0-.06,0-.1,0,0Zm2.66,2.33h0Zm6.33-3.35,0,0Zm4.71.26c0,.18,0,.36,0,.54v.12a2,2,0,0,1,0,.24,6.14,6.14,0,0,1-.23.94c0,.13-.09.27-.14.4a1.34,1.34,0,0,1-.07.18v0a10.26,10.26,0,0,1-.72,1.3l-.22.33a.76.76,0,0,0-.11.14c.14-.2,0,0,0,0a5.57,5.57,0,0,1-.46.51c-.15.16-.31.31-.47.45l-.15.12h0l-.22.16a6.39,6.39,0,0,1-1,.58l-.09,0h0l-.24.1a4.74,4.74,0,0,1-.5.15,4.21,4.21,0,0,1-.48.12l-.26,0h-.06c-.15,0-.29,0-.44,0l-.43,0a6.19,6.19,0,0,1-.74,0l-.28,0h-.12c-.13,0-.26,0-.38-.09l-.13,0L19,33.38c.22.07,0,0,0,0a2.27,2.27,0,0,1-.34-.19l-.13-.09-.05,0a3.31,3.31,0,0,1-.27-.26l-.11-.12,0,0a3.67,3.67,0,0,1-.36-.6l0-.06-.06-.16a1.52,1.52,0,0,1-.06-.2A7.91,7.91,0,0,0,21,30.28a11.64,11.64,0,0,0,2.59-2.41,9.31,9.31,0,0,0,1.72-3.3,8.49,8.49,0,0,0,.24-1.22l.12.08,0,0,0,0h0l0,0,.25.22a5.33,5.33,0,0,1,.46.49l0,0,.09.12.15.24a5.12,5.12,0,0,1,.27.52l0,0a.78.78,0,0,0,0,.14l.09.28a5.05,5.05,0,0,1,.12.56v.12c0,.09,0,.18,0,.28S27.32,26.89,27.32,27.07Zm-4.14,10.1h-.12l-.19,0-.39,0-.43,0H22l-.13,0a4.27,4.27,0,0,1-.72-.21l-.05,0-.16-.08a2.38,2.38,0,0,1-.3-.18l-.12-.09,0,0-.25-.24-.16-.18a.61.61,0,0,1-.07-.1l-.1-.15a2.11,2.11,0,0,1-.18-.33s0,0,0,0l0,.06,0-.08,0,0v0a3.31,3.31,0,0,1-.12-.42h0a8.11,8.11,0,0,0,3.85-.35,7.59,7.59,0,0,0,2.36-1.34,8.36,8.36,0,0,0,1.83-2.23c0,.08,0,.16.05.25h0s0,.09,0,.13a2.64,2.64,0,0,1,0,.29,4.68,4.68,0,0,1,0,.53,2.83,2.83,0,0,1,0,.29.68.68,0,0,1,0,.14,5.8,5.8,0,0,1-.23,1,3.81,3.81,0,0,1-.15.44l0,.08-.09.18a4.72,4.72,0,0,1-.41.73l-.11.17s0,0,0,0l0,.06,0-.05a2.62,2.62,0,0,1-.22.25l-.21.2a.17.17,0,0,1-.05,0h0L26,36l0,0a.91.91,0,0,1-.16.11,7.83,7.83,0,0,1-1,.59l-.24.12-.11.05-.46.17A5.38,5.38,0,0,1,23.18,37.17Zm-4.93,1.88a16,16,0,0,1-1.8.49l-.84.14h0l-.1,0-.21,0-.4,0a11.9,11.9,0,0,1-1.58,0c-.25,0-.51,0-.76-.06H12.4c-.05,0-.14,0,0,0L12,39.64a12.78,12.78,0,0,1-1.36-.32L10,39.1,9.71,39h0l-.15-.06c-.38-.17-.76-.36-1.13-.57s-.69-.43-1-.67l-.24-.17,0,0,0,0-.11-.09c-.15-.12-.3-.24-.44-.37A12.08,12.08,0,0,1,5.2,35.57L5,35.27a.62.62,0,0,1-.08-.12A1.09,1.09,0,0,1,4.74,35c-.16-.22-.31-.44-.45-.67s-.23-.4-.33-.6l-.11-.24,0-.1a18.55,18.55,0,0,1-.92-3.59v-.05l0-.11,0-.25c0-.17,0-.34,0-.51s0-.6,0-.9v-.08c0-.33,0-.66,0-1,0-.17,0-.34.05-.5h0v.05s0-.08,0-.11,0-.15,0-.23a11.76,11.76,0,0,1,.43-1.75c.09-.28.19-.55.29-.82l0,0,0,.05a.3.3,0,0,0,0-.1l.09-.19L4,22.85a14,14,0,0,1,.88-1.5c.16-.24.32-.47.5-.69l0,0,0,0,.07-.08.13-.17c.1-.12.19-.24.29-.35a8.61,8.61,0,0,1,.67-.68l.06-.05,0,0L6.87,19,7,19l.17-.13a6.87,6.87,0,0,1,.81-.51,3.84,3.84,0,0,1,.4-.21l.21-.1L8.7,18a10,10,0,0,1,1.67-.49l.26,0,.11,0h0l.45,0c.3,0,.6,0,.9,0l.5,0,.23,0,.09,0a8.74,8.74,0,0,1,.89.17c.32.08.63.17.94.28l.48.18c-.23-.08,0,0,.08,0l.22.1a8.52,8.52,0,0,1,.84.46l.22.16h0l.1.08a4,4,0,0,1,.38.34l.36.37c.05.06.1.14.16.2l.07.1a4.34,4.34,0,0,1,.28.46l.11.21,0,.09a3.45,3.45,0,0,1,.12.46v0h0v0c0,.08,0,.16,0,.23a4.86,4.86,0,0,1,0,.54,1.94,1.94,0,0,0,0,.24s0,.07,0,.1a3,3,0,0,1-.13.52,1.59,1.59,0,0,1-.07.2l0,0s0,0,0,0h0l0,0v0a2.82,2.82,0,0,1-.26.44l0,0-.12.13a2.37,2.37,0,0,1-.28.27.53.53,0,0,1-.14.12l0,0-.62.4-.38.2-.18.08.05,0-.07,0s-.08,0-.05,0c-.24.1-.5.19-.75.27a12.53,12.53,0,0,1-1.72.37h-.1l-.22,0-.44,0c-.29,0-.58,0-.87,0a16.79,16.79,0,0,1-1.74,0l-.83-.08H9l-.16,0a2.25,2.25,0,0,1-.36-.06.75.75,0,0,0-.89.51.72.72,0,0,0,.51.89A16.31,16.31,0,0,0,9.84,27a18.13,18.13,0,0,0,2.33,0c0,.05,0,.11,0,.16A3.8,3.8,0,0,0,13,30a4,4,0,0,0,1,.87,3.46,3.46,0,0,1,.18.65.15.15,0,0,1,0,.07.77.77,0,0,1,0,.15c0,.13,0,.25,0,.38s0,.23,0,.35a.69.69,0,0,1,0,.13v0a3.75,3.75,0,0,1-.13.58,8.71,8.71,0,0,1-.34,1l-.11.27-.06.13c-.07.17-.16.35-.24.52a7,7,0,0,1-.48.84.72.72,0,0,0,1.25.73,6.11,6.11,0,0,0,.57-1,11.86,11.86,0,0,0,.86-2.28,5.47,5.47,0,0,0,.15-1.89l.4.08c0,.07,0,.15.05.22A4.25,4.25,0,0,0,18,34.46h0a4.14,4.14,0,0,0,2.36,3.73l-.33.15-.47.21-.11,0-.24.09C18.9,38.83,18.58,38.94,18.25,39.05ZM9.94,41.78h0Zm-4.84-2,.06,0ZM2.15,35.88l0,.09A.36.36,0,0,1,2.15,35.88ZM1.51,33.5v0Zm-.06-1.43c0-.23,0-.45.06-.67v0a.88.88,0,0,0,0-.16,3,3,0,0,1,.07-.32v0c.06.34.13.68.22,1,.15.62.35,1.22.55,1.83a5.18,5.18,0,0,0,.26.65,8.3,8.3,0,0,0,.76,1.28,14,14,0,0,0,1.33,1.64,15.53,15.53,0,0,0,1.83,1.6,12.21,12.21,0,0,0,2.18,1.28,12,12,0,0,0,2.8.9,12.62,12.62,0,0,0,2.67.22l-.05,0-.05,0h0l-.05,0h0l-.22.09a8.19,8.19,0,0,1-1.2.33l-.33.05h0l-.14,0c-.21,0-.42,0-.64.05a8.84,8.84,0,0,1-1.26,0l-.33,0h0a1,1,0,0,0-.17,0l-.63-.11c-.43-.1-.86-.22-1.28-.36-.21-.08-.42-.15-.62-.24h0L7.09,41l-.31-.15a11,11,0,0,1-1.16-.64c-.16-.1-.31-.21-.46-.32l-.07,0h0l0,0-.21-.18A9.38,9.38,0,0,1,4,38.79l-.4-.47-.09-.11,0,0-.18-.24c-.24-.35-.46-.71-.67-1.08l-.3-.58L2.2,36l0-.07,0,0a.05.05,0,0,0,0,0,11.73,11.73,0,0,1-.41-1.27c-.06-.21-.1-.43-.14-.65a2.33,2.33,0,0,1-.06-.35h0a.78.78,0,0,1,0-.16A8.45,8.45,0,0,1,1.45,32.07Z"/><path class="cls-2" d="M12.28,41.79Z"/></g></g></svg>